<?xml version="1.0" encoding="UTF-8"?>
  <svg  width="32" height="32" id="Layer_2" xmlns="http://www.w3.org/2000/svg" viewBox="0 0 32 32">
    <defs>
      <style>.cls-1{fill:#fefefe;}.cls-2{fill:#1dbe73;}</style>
    </defs>
    <g id="Layer_1-2">
      <g>
        <path class="cls-2" d="M31.99,16.03c0,5.24,0,10.47,0,15.71,0,.21-.03,.26-.25,.26-10.49,0-20.99,0-31.48,0-.24,0-.27-.06-.27-.28C0,21.24,0,10.76,0,.28,0,.06,.03,0,.27,0,10.75,0,21.23,0,31.72,0c.24,0,.28,.07,.28,.29,0,5.25,0,10.49,0,15.74Z"/><path class="cls-1" d="M22.95,18.58c0,2.1,0,4.21,0,6.31,0,.28-.08,.34-.35,.34-1.23-.01-2.46-.02-3.69,0-.29,0-.34-.09-.34-.36,0-3.01,0-6.02,.01-9.03,0-.28-.06-.37-.36-.36-1.14,.02-2.29,.02-3.44,0-.3,0-.4,.06-.4,.38,.01,2.97,0,5.93,0,8.9,0,.48,.06,.42-.44,.43-1.21,0-2.42,0-3.62,0-.28,0-.34-.08-.34-.35,0-3.01,0-6.02,.01-9.03,0-.28-.07-.35-.34-.34-.63,.02-1.27,0-1.9,.01-.19,0-.25-.05-.25-.24,0-1.03,0-2.06,0-3.09,0-.21,.06-.27,.27-.26,.66,.01,1.31,0,1.97,0,.21,0,.26-.07,.26-.27-.01-.76-.03-1.52,.2-2.26,.55-1.77,1.81-2.75,3.56-3.19,.53-.13,1.07-.17,1.61-.18,.98,0,1.96,0,2.94,0,.21,0,.27,.06,.27,.27,0,1.03,0,2.06,0,3.09,0,.22-.09,.25-.28,.25-.79,0-1.58-.01-2.37,0-.75,.01-1.31,.4-1.48,1.02-.1,.37-.04,.75-.05,1.12,0,.11,.07,.14,.16,.14,.08,0,.17,0,.25,0,2.59,0,5.18,0,7.78,0,.27,0,.35,.06,.35,.34-.01,2.11,0,4.23,0,6.34Z"/>
      </g>
    </g>
  </svg>