<?xml version="1.0" standalone="no"?>
<!DOCTYPE svg PUBLIC "-//W3C//DTD SVG 1.0//EN" "http://www.w3.org/TR/2001/REC-SVG-20010904/DTD/svg10.dtd">
<svg xmlns="http://www.w3.org/2000/svg" xmlns:xlink="http://www.w3.org/1999/xlink" id="body_1" width="799" height="599">

<g transform="matrix(0.19297867 0 0 0.19297867 100.00097 -0)">
	<g>
		<g>
			<g>
                <path d="M2541.62 1225L2541.62 2997.6L557 2997.6L557 1225L340.7 1314.74L141.50002 1022.27L4.79 821.52L718 280.32L1152.51 119L1225.8201 96.33C 1276.4701 140.33 1372.4501 214.97 1548.8801 214.97L1548.8801 214.97L1549.7401 214.97C 1726.1702 214.97 1822.1501 140.32 1872.8 96.33L1872.8 96.33L1946.12 119L2380.68 280.28998L3093.83 821.49L2957.11 1022.23L2757.9202 1314.7L2541.62 1225" stroke="none" fill="#FFFFFF" fill-rule="nonzero" />
			</g>
			<g>
			</g>
			<g transform="matrix(1 0 0 1 976.76 744.25)">
				<g transform="matrix(1 0 0 1 0 0)">
					<g>
                        <path transform="matrix(1 0 0 1 0 0)"  d="M0 0L1151.71 0L1151.71 1535.62L0 1535.62z" stroke="#FFFFFF" stroke-width="1" fill="#FFFFFF" fill-rule="nonzero" />
					</g>
					<g>
                        <path transform="matrix(1 0 0 1 0 0)"  d="M0 0L1151.71 0L1151.71 1535.62L0 1535.62z" stroke="#000000" stroke-width="1" fill="#FFFFFF" fill-rule="nonzero" />
					</g>
				</g>
			</g>
		</g>
		<g>
            <path d="M1876.8 102C 1826.15 146 1730.17 220.64 1553.74 220.64L1553.74 220.64L1552.88 220.64C 1376.45 220.64 1280.47 145.98999 1229.8201 102M1229.8201 102C 1229.8201 306.09 1381.2101 476.57 1552.8801 476.57L1552.8801 476.57L1553.7401 476.57C 1725.4102 476.57 1876.8 306.09003 1876.8 102" stroke="none" fill="#000000" fill-rule="nonzero" fill-opacity="0.2" />
			<g>
                <path d="M1870.62 167.2C 1818.78 211.57 1723.36 279 1552.41 279L1552.41 279L1551.55 279C 1380.55 279 1285.18 211.58 1233.3401 167.20999" stroke="#272223" stroke-width="2.19" stroke-linecap="square" stroke-dasharray="13.33,6.6700006" fill="none" />
                <path d="M1861 195.51C 1807.5 239.87 1714.63 301.65 1552.41 301.65L1552.41 301.65L1551.55 301.65C 1389.3301 301.65 1296.4501 239.87 1242.9601 195.51" stroke="#272223" stroke-width="2.19" stroke-linecap="square" stroke-dasharray="13.33,6.6700006" fill="none" />
                <path d="M425.47 1284.62L222.82 972.93L83.83 768.89" stroke="#272223" stroke-width="2.19" stroke-linecap="square" stroke-dasharray="13.33,6.6700006" fill="none" />
                <path d="M449.08 1275.4L245.49 962.27L105.57 756.98L103.54 753.94" stroke="#272223" stroke-width="2.19" stroke-linecap="square" stroke-dasharray="13.33,6.6700006" fill="none" />
                <path d="M1948.78 124.36C 1948.78 357.91998 1771.23 544.25 1552.41 544.25L1552.41 544.25L1551.55 544.25C 1332.7201 544.25 1155.17 357.91998 1155.17 124.359985" stroke="#272223" stroke-width="5.48" fill="none" />
                <path d="M1228.49 101.7C 1228.49 305.78998 1379.88 476.27002 1551.55 476.27002L1551.55 476.27002L1552.41 476.27002C 1724.0801 476.27002 1875.47 305.79004 1875.47 101.70001" stroke="#272223" stroke-width="5.48" fill="none" />
                <path d="M2544.16 1231.41L2544.28 3002.92L559.67 3002.92L559.67 1230.32L343.37 1320.0599L144.18 1027.59L7.46 826.85L720.61005 285.64996L1155.17 124.35997L1228.49 101.69997C 1279.14 145.69997 1375.12 220.32996 1551.55 220.32996L1551.55 220.32996L1552.41 220.32996C 1728.8401 220.32996 1824.8201 145.68996 1875.47 101.69996L1875.47 101.69996L1948.78 124.359955L2382.86 285.64996L3096.5 826.85L2959.78 1027.59L2760.58 1320.0599L2544.28 1230.32L2544.16 1231.41z" stroke="#272223" stroke-width="10.96" fill="none" />
                <path d="M1870.62 156.53C 1818.78 200.9 1723.36 271 1552.41 271L1552.41 271L1551.55 271C 1380.55 271 1285.18 200.91 1233.3401 156.54001" stroke="#272223" stroke-width="3.28" fill="none" />
                <path d="M1861 206.18C 1807.5 250.54 1714.63 309.63998 1552.41 309.63998L1552.41 309.63998L1551.55 309.63998C 1389.3301 309.63998 1296.4501 250.53998 1242.9601 206.18" stroke="#272223" stroke-width="3.28" fill="none" />
                <path d="M2544.64 2908.99L1552.4 2908.99L1551.55 2908.99L559.32 2908.99" stroke="#272223" stroke-width="2.19" stroke-linecap="square" stroke-dasharray="13.33,6.6700006" fill="none" />
                <path d="M2544.64 2930.32L1552.4 2930.32L1551.55 2930.32L559.32 2930.32" stroke="#272223" stroke-width="2.19" stroke-linecap="square" stroke-dasharray="13.33,6.6700006" fill="none" />
                <path d="M2678.71 1284.27L2881.13 972.93L3020.04 769.53" stroke="#272223" stroke-width="2.19" stroke-linecap="square" stroke-dasharray="13.33,6.6700006" fill="none" />
                <path d="M2654.88 1275.4L2858.47 962.27L3000.04 754.87" stroke="#272223" stroke-width="2.19" stroke-linecap="square" stroke-dasharray="13.33,6.6700006" fill="none" />
                <path d="M720.61 285.65C 702.18 283.15 836.39996 864.53 559.67 1230.32" stroke="#272223" stroke-width="5.48" fill="none" />
                <path d="M2382.55 285.65C 2400.98 283.15 2266.76 864.53 2543.49 1230.32" stroke="#272223" stroke-width="5.48" fill="none" />
			</g>
		</g>
	</g>
</g>
</svg>